<?xml version="1.0" encoding="UTF-8" standalone="no"?>
<!-- Created with Inkscape (http://www.inkscape.org/) -->

<svg
   xmlns:dc="http://purl.org/dc/elements/1.1/"
   xmlns:cc="http://creativecommons.org/ns#"
   xmlns:rdf="http://www.w3.org/1999/02/22-rdf-syntax-ns#"
   xmlns:svg="http://www.w3.org/2000/svg"
   xmlns="http://www.w3.org/2000/svg"
   xmlns:sodipodi="http://sodipodi.sourceforge.net/DTD/sodipodi-0.dtd"
   xmlns:inkscape="http://www.inkscape.org/namespaces/inkscape"
   width="512mm"
   height="512mm"
   viewBox="0 0 512 512"
   version="1.1"
   id="svg4646"
   inkscape:version="0.92.3 (2405546, 2018-03-11)"
   sodipodi:docname="icon-twitter.svg">
  <defs
     id="defs4640">
    <clipPath
       id="clipPath4679"
       clipPathUnits="userSpaceOnUse">
      <path
         inkscape:connector-curvature="0"
         id="path4677"
         d="M 0,841.89 H 595.28 V 0 H 0 Z" />
    </clipPath>
  </defs>
  <sodipodi:namedview
     id="base"
     pagecolor="#ffffff"
     bordercolor="#666666"
     borderopacity="1.0"
     inkscape:pageopacity="0.0"
     inkscape:pageshadow="2"
     inkscape:zoom="0.24748737"
     inkscape:cx="774.97196"
     inkscape:cy="695.36159"
     inkscape:document-units="mm"
     inkscape:current-layer="layer1"
     showgrid="false"
     inkscape:snap-page="true"
     inkscape:snap-object-midpoints="true"
     inkscape:snap-center="true"
     inkscape:window-width="1600"
     inkscape:window-height="841"
     inkscape:window-x="0"
     inkscape:window-y="30"
     inkscape:window-maximized="1" />
  <metadata
     id="metadata4643">
    <rdf:RDF>
      <cc:Work
         rdf:about="">
        <dc:format>image/svg+xml</dc:format>
        <dc:type
           rdf:resource="http://purl.org/dc/dcmitype/StillImage" />
        <dc:title />
      </cc:Work>
    </rdf:RDF>
  </metadata>
  <g
     inkscape:label="Layer 1"
     inkscape:groupmode="layer"
     id="layer1"
     transform="translate(0,215)">
    <path
       style="fill:#000000;fill-opacity:1;stroke:none;stroke-width:24.83158684;stroke-miterlimit:4;stroke-dasharray:none;stroke-opacity:1"
       d="M 592.68359 0 C 278.26779 0 25.144531 253.1213 25.144531 567.53711 L 25.144531 1367.5801 C 25.144531 1681.9959 278.26779 1935.1172 592.68359 1935.1172 L 1342.4316 1935.1172 C 1656.8474 1935.1172 1909.9687 1681.9959 1909.9688 1367.5801 L 1909.9688 567.53711 C 1909.9688 253.1213 1656.8474 0 1342.4316 0 L 592.68359 0 z M 1246.3691 378.58398 C 1331.8856 378.58398 1409.1699 414.7379 1463.4277 472.53711 C 1531.1567 459.19221 1594.7816 434.4151 1652.2422 400.35547 C 1630.0179 469.80061 1582.8787 528.04077 1521.4922 564.85547 C 1581.6389 557.65783 1638.9777 541.70792 1692.2598 518.04297 C 1652.4432 577.66166 1601.9676 630.04273 1543.9102 672.01172 C 1544.5015 684.75395 1544.7598 697.56936 1544.7598 710.45508 C 1544.7598 1103.3863 1245.6561 1556.5332 698.68164 1556.5332 C 530.71959 1556.5332 374.46775 1507.3104 242.85547 1422.9707 C 266.13586 1425.7086 289.78937 1427.0801 313.79297 1427.0801 C 453.11942 1427.0801 581.32115 1379.5487 683.12695 1299.7949 C 552.94385 1297.367 443.17195 1211.3969 405.31836 1093.25 C 423.43874 1096.7168 442.06325 1098.6172 461.2168 1098.6172 C 488.3543 1098.6172 514.63772 1094.9503 539.61133 1088.1602 C 403.5565 1060.8906 301.04492 940.65429 301.04492 796.62695 C 301.04492 795.32403 301.04442 794.0717 301.11328 792.82617 C 341.18816 815.12507 387.01459 828.53318 435.78516 830.03125 C 355.96258 776.74923 303.46094 685.68358 303.46094 582.51172 C 303.46094 528.04157 318.16578 476.98067 343.73633 433.04297 C 490.37526 612.97237 709.53008 731.30784 956.67188 743.73438 C 951.5635 721.96354 948.95117 699.26955 948.95117 675.9375 C 948.95117 511.76367 1082.1379 378.58398 1246.3691 378.58398 z "
       transform="matrix(0.26458333,0,0,0.26458333,0,-215)"
       id="rect4779-3" />
  </g>
</svg>
