<?xml version="1.0" encoding="UTF-8" standalone="no"?>
<!-- Created with Inkscape (http://www.inkscape.org/) -->

<svg
   xmlns:dc="http://purl.org/dc/elements/1.1/"
   xmlns:cc="http://creativecommons.org/ns#"
   xmlns:rdf="http://www.w3.org/1999/02/22-rdf-syntax-ns#"
   xmlns:svg="http://www.w3.org/2000/svg"
   xmlns="http://www.w3.org/2000/svg"
   xmlns:sodipodi="http://sodipodi.sourceforge.net/DTD/sodipodi-0.dtd"
   xmlns:inkscape="http://www.inkscape.org/namespaces/inkscape"
   width="512mm"
   height="512mm"
   viewBox="0 0 512 512"
   version="1.1"
   id="svg4646"
   inkscape:version="0.92.3 (2405546, 2018-03-11)"
   sodipodi:docname="icon-instagram.svg">
  <defs
     id="defs4640">
    <clipPath
       id="clipPath4679"
       clipPathUnits="userSpaceOnUse">
      <path
         inkscape:connector-curvature="0"
         id="path4677"
         d="M 0,841.89 H 595.28 V 0 H 0 Z" />
    </clipPath>
    <clipPath
       id="clipPath4729"
       clipPathUnits="userSpaceOnUse">
      <path
         inkscape:connector-curvature="0"
         id="path4727"
         d="M 0,0 H 4282 V 4273 H 0 Z" />
    </clipPath>
    <clipPath
       id="clipPath4735"
       clipPathUnits="userSpaceOnUse">
      <path
         inkscape:connector-curvature="0"
         id="path4733"
         d="M 4282.08,936.129 C 4282.08,419.121 3864.97,0 3350.43,0 H 931.656 C 417.117,0 0,419.121 0,936.129 V 3337.11 c 0,517 417.117,936.12 931.656,936.12 H 3350.43 c 514.54,0 931.65,-419.12 931.65,-936.12 z" />
    </clipPath>
    <radialGradient
       id="radialGradient4749"
       spreadMethod="pad"
       gradientTransform="matrix(1400.92,4083.18,4083.18,-1400.92,1244.54,10.5798)"
       gradientUnits="userSpaceOnUse"
       r="1"
       cy="0"
       cx="0"
       fy="0"
       fx="0">
      <stop
         id="stop4737"
         offset="0"
         style="stop-opacity:1;stop-color:#fbd459" />
      <stop
         id="stop4739"
         offset="0.246305"
         style="stop-opacity:1;stop-color:#f29b3e" />
      <stop
         id="stop4741"
         offset="0.37931"
         style="stop-opacity:1;stop-color:#f14534" />
      <stop
         id="stop4743"
         offset="0.699507"
         style="stop-opacity:1;stop-color:#c21889" />
      <stop
         id="stop4745"
         offset="0.985222"
         style="stop-opacity:1;stop-color:#5a63b8" />
      <stop
         id="stop4747"
         offset="1"
         style="stop-opacity:1;stop-color:#5a63b8" />
    </radialGradient>
  </defs>
  <sodipodi:namedview
     id="base"
     pagecolor="#ffffff"
     bordercolor="#666666"
     borderopacity="1.0"
     inkscape:pageopacity="0.0"
     inkscape:pageshadow="2"
     inkscape:zoom="0.12374369"
     inkscape:cx="-3425.1573"
     inkscape:cy="888.22651"
     inkscape:document-units="mm"
     inkscape:current-layer="layer1"
     showgrid="false"
     inkscape:snap-page="true"
     inkscape:snap-object-midpoints="true"
     inkscape:snap-center="true"
     inkscape:window-width="1920"
     inkscape:window-height="1015"
     inkscape:window-x="1600"
     inkscape:window-y="36"
     inkscape:window-maximized="1"
     inkscape:snap-others="false"
     inkscape:snap-bbox="true"
     inkscape:bbox-paths="true"
     inkscape:bbox-nodes="true"
     inkscape:snap-bbox-edge-midpoints="true"
     inkscape:snap-bbox-midpoints="true" />
  <metadata
     id="metadata4643">
    <rdf:RDF>
      <cc:Work
         rdf:about="">
        <dc:format>image/svg+xml</dc:format>
        <dc:type
           rdf:resource="http://purl.org/dc/dcmitype/StillImage" />
        <dc:title />
      </cc:Work>
    </rdf:RDF>
  </metadata>
  <g
     inkscape:label="Layer 1"
     inkscape:groupmode="layer"
     id="layer1"
     transform="translate(0,215)">
    <path
       style="fill:#000000;fill-opacity:1;stroke:none;stroke-width:24.83158684;stroke-miterlimit:4;stroke-dasharray:none;stroke-opacity:1"
       d="M 592.68555 0 C 278.26977 0 25.146484 253.12133 25.146484 567.53711 L 25.146484 1367.5801 C 25.146484 1681.9959 278.26977 1935.1172 592.68555 1935.1172 L 1342.4336 1935.1172 C 1656.8494 1935.1172 1909.9707 1681.9959 1909.9707 1367.5801 L 1909.9707 567.53711 C 1909.9707 253.12133 1656.8494 0 1342.4336 0 L 592.68555 0 z M 1475.5625 339.2832 A 115.68612 115.68612 0 0 1 1591.248 454.9707 A 115.68612 115.68612 0 0 1 1475.5625 570.65625 A 115.68612 115.68612 0 0 1 1359.877 454.9707 A 115.68612 115.68612 0 0 1 1475.5625 339.2832 z M 967.62109 427.14844 A 537.73114 537.73114 0 0 1 1505.3535 964.88086 A 537.73114 537.73114 0 0 1 967.62109 1502.6113 A 537.73114 537.73114 0 0 1 429.89062 964.88086 A 537.73114 537.73114 0 0 1 967.62109 427.14844 z M 967.62109 672.83398 A 292.04604 292.04604 0 0 0 675.57617 964.88086 A 292.04604 292.04604 0 0 0 967.62109 1256.9258 A 292.04604 292.04604 0 0 0 1259.668 964.88086 A 292.04604 292.04604 0 0 0 967.62109 672.83398 z "
       transform="matrix(0.26458333,0,0,0.26458333,0,-215)"
       id="rect4779" />
  </g>
</svg>
