<?xml version="1.0" encoding="UTF-8" standalone="no"?>
<!-- Created with Inkscape (http://www.inkscape.org/) -->

<svg
   xmlns:dc="http://purl.org/dc/elements/1.1/"
   xmlns:cc="http://creativecommons.org/ns#"
   xmlns:rdf="http://www.w3.org/1999/02/22-rdf-syntax-ns#"
   xmlns:svg="http://www.w3.org/2000/svg"
   xmlns="http://www.w3.org/2000/svg"
   xmlns:sodipodi="http://sodipodi.sourceforge.net/DTD/sodipodi-0.dtd"
   xmlns:inkscape="http://www.inkscape.org/namespaces/inkscape"
   width="512mm"
   height="512mm"
   viewBox="0 0 512 512"
   version="1.1"
   id="svg4646"
   inkscape:version="0.92.3 (2405546, 2018-03-11)"
   sodipodi:docname="icon-github.svg">
  <defs
     id="defs4640">
    <clipPath
       id="clipPath4679"
       clipPathUnits="userSpaceOnUse">
      <path
         inkscape:connector-curvature="0"
         id="path4677"
         d="M 0,841.89 H 595.28 V 0 H 0 Z" />
    </clipPath>
    <clipPath
       id="clipPath4729"
       clipPathUnits="userSpaceOnUse">
      <path
         inkscape:connector-curvature="0"
         id="path4727"
         d="M 0,0 H 4282 V 4273 H 0 Z" />
    </clipPath>
    <clipPath
       id="clipPath4735"
       clipPathUnits="userSpaceOnUse">
      <path
         inkscape:connector-curvature="0"
         id="path4733"
         d="M 4282.08,936.129 C 4282.08,419.121 3864.97,0 3350.43,0 H 931.656 C 417.117,0 0,419.121 0,936.129 V 3337.11 c 0,517 417.117,936.12 931.656,936.12 H 3350.43 c 514.54,0 931.65,-419.12 931.65,-936.12 z" />
    </clipPath>
    <radialGradient
       id="radialGradient4749"
       spreadMethod="pad"
       gradientTransform="matrix(1400.92,4083.18,4083.18,-1400.92,1244.54,10.5798)"
       gradientUnits="userSpaceOnUse"
       r="1"
       cy="0"
       cx="0"
       fy="0"
       fx="0">
      <stop
         id="stop4737"
         offset="0"
         style="stop-opacity:1;stop-color:#fbd459" />
      <stop
         id="stop4739"
         offset="0.246305"
         style="stop-opacity:1;stop-color:#f29b3e" />
      <stop
         id="stop4741"
         offset="0.37931"
         style="stop-opacity:1;stop-color:#f14534" />
      <stop
         id="stop4743"
         offset="0.699507"
         style="stop-opacity:1;stop-color:#c21889" />
      <stop
         id="stop4745"
         offset="0.985222"
         style="stop-opacity:1;stop-color:#5a63b8" />
      <stop
         id="stop4747"
         offset="1"
         style="stop-opacity:1;stop-color:#5a63b8" />
    </radialGradient>
    <clipPath
       id="clipPath4898"
       clipPathUnits="userSpaceOnUse">
      <path
         inkscape:connector-curvature="0"
         id="path4896"
         d="M 0,512 H 520 V 0 H 0 Z" />
    </clipPath>
  </defs>
  <sodipodi:namedview
     id="base"
     pagecolor="#ffffff"
     bordercolor="#666666"
     borderopacity="1.0"
     inkscape:pageopacity="0.0"
     inkscape:pageshadow="2"
     inkscape:zoom="0.12374369"
     inkscape:cx="-2079.6341"
     inkscape:cy="564.9777"
     inkscape:document-units="mm"
     inkscape:current-layer="layer1"
     showgrid="false"
     inkscape:snap-page="true"
     inkscape:snap-object-midpoints="true"
     inkscape:snap-center="true"
     inkscape:window-width="1920"
     inkscape:window-height="1015"
     inkscape:window-x="1600"
     inkscape:window-y="36"
     inkscape:window-maximized="1"
     inkscape:snap-others="false"
     inkscape:snap-bbox="true"
     inkscape:bbox-paths="true"
     inkscape:bbox-nodes="true"
     inkscape:snap-bbox-edge-midpoints="true"
     inkscape:snap-bbox-midpoints="true" />
  <metadata
     id="metadata4643">
    <rdf:RDF>
      <cc:Work
         rdf:about="">
        <dc:format>image/svg+xml</dc:format>
        <dc:type
           rdf:resource="http://purl.org/dc/dcmitype/StillImage" />
        <dc:title></dc:title>
      </cc:Work>
    </rdf:RDF>
  </metadata>
  <g
     inkscape:label="Layer 1"
     inkscape:groupmode="layer"
     id="layer1"
     transform="translate(0,215)">
    <g
       transform="matrix(1.1196959,0,0,-1.1196959,-35.104087,327.49318)"
       inkscape:label="github-seeklogo.com"
       id="g4890"
       style="fill:#000000">
      <g
         id="g4892"
         style="fill:#000000">
        <g
           clip-path="url(#clipPath4898)"
           id="g4894"
           style="fill:#000000">
          <g
             transform="translate(488.6333,250.4355)"
             id="g4900"
             style="fill:#000000">
            <path
               inkscape:connector-curvature="0"
               id="path4902"
               style="fill:#000000;fill-opacity:1;fill-rule:nonzero;stroke:none"
               d="m 0,0 c 0,126.271 -102.363,228.633 -228.633,228.633 -126.271,0 -228.634,-102.362 -228.634,-228.633 0,-100.224 64.493,-185.375 154.237,-216.245 5.471,3.948 11.772,8.818 11.772,17.024 0,12.575 -0.272,44.923 -0.272,44.923 0,0 -9.925,-1.689 -24.087,-1.689 -35.687,0 -46.971,22.646 -52.342,35.322 -6.99,16.507 -16.054,24.259 -25.684,30.456 -5.914,3.809 -7.273,8.293 -0.43,9.577 31.586,5.915 39.664,-35.628 60.76,-42.253 15.057,-4.72 34.418,-2.68 44.049,3.516 1.269,12.687 10.468,23.662 18.127,29.441 -53.656,5.127 -85.47,23.662 -101.966,53.452 l -1.767,3.336 -4.146,9.464 -1.224,3.392 c -5.166,15.121 -7.455,32.439 -7.455,51.785 0,34.343 10.763,47.3 25.208,65.609 -11.046,39.155 3.966,65.914 3.966,65.914 0,0 23.225,4.789 67.127,-26.478 23.791,10.141 87.237,10.986 117.26,2.254 18.41,12.112 52.115,29.295 65.711,24.484 3.682,-5.893 11.613,-23.076 4.815,-60.822 4.611,-8.281 28.607,-25.915 28.698,-75.773 -0.385,-18.387 -2.312,-33.915 -5.881,-47.041 l -1.982,-6.715 c 0,0 -1.133,-3.166 -2.368,-6.186 l -1.45,-3.335 c -15.918,-34.77 -48.57,-47.751 -101.331,-53.148 17.096,-10.704 22.002,-24.134 22.002,-60.472 0,-36.337 -0.488,-41.216 -0.374,-49.576 0.098,-7.387 6.007,-12.698 11.321,-16.72 C -64.843,-185.849 0,-100.498 0,0" />
          </g>
        </g>
      </g>
    </g>
  </g>
</svg>
