<?xml version="1.0" encoding="UTF-8" standalone="no"?>
<!-- Created with Inkscape (http://www.inkscape.org/) -->

<svg
   xmlns:dc="http://purl.org/dc/elements/1.1/"
   xmlns:cc="http://creativecommons.org/ns#"
   xmlns:rdf="http://www.w3.org/1999/02/22-rdf-syntax-ns#"
   xmlns:svg="http://www.w3.org/2000/svg"
   xmlns="http://www.w3.org/2000/svg"
   xmlns:sodipodi="http://sodipodi.sourceforge.net/DTD/sodipodi-0.dtd"
   xmlns:inkscape="http://www.inkscape.org/namespaces/inkscape"
   width="512mm"
   height="512mm"
   viewBox="0 0 512 512"
   version="1.1"
   id="svg4646"
   inkscape:version="0.92.3 (2405546, 2018-03-11)"
   sodipodi:docname="icon-github.svg">
  <defs
     id="defs4640">
    <clipPath
       id="clipPath4679"
       clipPathUnits="userSpaceOnUse">
      <path
         inkscape:connector-curvature="0"
         id="path4677"
         d="M 0,841.89 H 595.28 V 0 H 0 Z" />
    </clipPath>
    <clipPath
       id="clipPath4729"
       clipPathUnits="userSpaceOnUse">
      <path
         inkscape:connector-curvature="0"
         id="path4727"
         d="M 0,0 H 4282 V 4273 H 0 Z" />
    </clipPath>
    <clipPath
       id="clipPath4735"
       clipPathUnits="userSpaceOnUse">
      <path
         inkscape:connector-curvature="0"
         id="path4733"
         d="M 4282.08,936.129 C 4282.08,419.121 3864.97,0 3350.43,0 H 931.656 C 417.117,0 0,419.121 0,936.129 V 3337.11 c 0,517 417.117,936.12 931.656,936.12 H 3350.43 c 514.54,0 931.65,-419.12 931.65,-936.12 z" />
    </clipPath>
    <radialGradient
       id="radialGradient4749"
       spreadMethod="pad"
       gradientTransform="matrix(1400.92,4083.18,4083.18,-1400.92,1244.54,10.5798)"
       gradientUnits="userSpaceOnUse"
       r="1"
       cy="0"
       cx="0"
       fy="0"
       fx="0">
      <stop
         id="stop4737"
         offset="0"
         style="stop-opacity:1;stop-color:#fbd459" />
      <stop
         id="stop4739"
         offset="0.246305"
         style="stop-opacity:1;stop-color:#f29b3e" />
      <stop
         id="stop4741"
         offset="0.37931"
         style="stop-opacity:1;stop-color:#f14534" />
      <stop
         id="stop4743"
         offset="0.699507"
         style="stop-opacity:1;stop-color:#c21889" />
      <stop
         id="stop4745"
         offset="0.985222"
         style="stop-opacity:1;stop-color:#5a63b8" />
      <stop
         id="stop4747"
         offset="1"
         style="stop-opacity:1;stop-color:#5a63b8" />
    </radialGradient>
    <clipPath
       id="clipPath4898"
       clipPathUnits="userSpaceOnUse">
      <path
         inkscape:connector-curvature="0"
         id="path4896"
         d="M 0,512 H 520 V 0 H 0 Z" />
    </clipPath>
  </defs>
  <sodipodi:namedview
     id="base"
     pagecolor="#ffffff"
     bordercolor="#666666"
     borderopacity="1.0"
     inkscape:pageopacity="0.0"
     inkscape:pageshadow="2"
     inkscape:zoom="0.175"
     inkscape:cx="-200.83574"
     inkscape:cy="1475.0505"
     inkscape:document-units="mm"
     inkscape:current-layer="layer1"
     showgrid="false"
     inkscape:snap-page="true"
     inkscape:snap-object-midpoints="true"
     inkscape:snap-center="true"
     inkscape:window-width="1600"
     inkscape:window-height="841"
     inkscape:window-x="0"
     inkscape:window-y="30"
     inkscape:window-maximized="1"
     inkscape:snap-others="true"
     inkscape:snap-bbox="false"
     inkscape:bbox-paths="true"
     inkscape:bbox-nodes="true"
     inkscape:snap-bbox-edge-midpoints="true"
     inkscape:snap-bbox-midpoints="true" />
  <metadata
     id="metadata4643">
    <rdf:RDF>
      <cc:Work
         rdf:about="">
        <dc:format>image/svg+xml</dc:format>
        <dc:type
           rdf:resource="http://purl.org/dc/dcmitype/StillImage" />
        <dc:title />
      </cc:Work>
    </rdf:RDF>
  </metadata>
  <g
     inkscape:label="Layer 1"
     inkscape:groupmode="layer"
     id="layer1"
     transform="translate(0,215)">
    <path
       style="fill:#000000;fill-opacity:1;stroke:none;stroke-width:24.83158684;stroke-miterlimit:4;stroke-dasharray:none;stroke-opacity:1"
       d="M 592.68555 0 C 278.2697 0 25.146484 253.12136 25.146484 567.53711 L 25.146484 1367.5801 C 25.146484 1681.9959 278.2697 1935.1172 592.68555 1935.1172 L 615.76562 1935.1172 L 652.78125 1905.6758 C 675.93411 1888.9682 702.59961 1868.36 702.59961 1833.6328 C 702.59961 1780.4164 701.44922 1643.5215 701.44922 1643.5215 C 701.44922 1643.5215 659.44613 1650.6699 599.51367 1650.6699 C 448.48908 1650.6699 400.73744 1554.8333 378.00781 1501.1895 C 348.42667 1431.3331 310.06786 1398.528 269.31445 1372.3027 C 244.28687 1356.1834 238.5351 1337.2072 267.49414 1331.7734 C 401.1636 1306.7416 435.35035 1482.5475 524.62695 1510.584 C 588.34699 1530.5586 670.28139 1521.926 711.03906 1495.7051 C 716.40936 1442.0147 755.33772 1395.5695 787.75 1371.1133 C 560.68203 1349.4162 426.04804 1270.9772 356.23828 1144.9082 L 348.75977 1130.791 L 331.21484 1090.7402 L 326.03516 1076.3848 C 304.17305 1012.3939 294.48633 939.1051 294.48633 857.23438 C 294.48633 711.8975 340.03396 657.06428 401.16406 579.58203 C 354.41826 413.88116 417.94727 300.64062 417.94727 300.64062 C 417.94727 300.64063 516.23362 280.37388 702.02344 412.69336 C 802.7051 369.77743 1071.2048 366.20114 1198.2598 403.1543 C 1266.4308 358.30438 1384.1581 297.02296 1451.0703 296.04297 C 1460.6292 295.90297 1469.1516 296.99409 1476.3438 299.53906 C 1491.9254 324.47778 1525.4893 397.1955 1496.7207 556.93359 C 1516.2341 591.97813 1617.7829 666.60447 1618.168 877.59961 C 1616.5387 955.41195 1608.383 1021.1237 1593.2793 1076.6719 L 1584.8926 1105.0898 C 1584.8926 1105.0898 1580.0975 1118.4891 1574.8711 1131.2695 L 1568.7344 1145.3828 C 1501.3706 1292.5267 1363.1905 1347.4611 1139.9102 1370.3008 C 1212.2591 1415.5993 1233.0215 1472.4333 1233.0215 1626.2129 C 1233.0215 1779.9882 1230.955 1800.6368 1231.4375 1836.0156 C 1231.8522 1867.2769 1256.8592 1889.7526 1279.3477 1906.7734 L 1314.9844 1935.1172 L 1342.4336 1935.1172 C 1656.8494 1935.1172 1909.9707 1681.9959 1909.9707 1367.5801 L 1909.9707 567.53711 C 1909.9707 253.12136 1656.8494 -7.5791225e-14 1342.4336 0 L 592.68555 0 z "
       transform="matrix(0.26458333,0,0,0.26458333,0,-215)"
       id="rect4779-3" />
  </g>
</svg>
