<?xml version="1.0" encoding="UTF-8" standalone="no"?>
<!-- Created with Inkscape (http://www.inkscape.org/) -->

<svg
   xmlns:dc="http://purl.org/dc/elements/1.1/"
   xmlns:cc="http://creativecommons.org/ns#"
   xmlns:rdf="http://www.w3.org/1999/02/22-rdf-syntax-ns#"
   xmlns:svg="http://www.w3.org/2000/svg"
   xmlns="http://www.w3.org/2000/svg"
   xmlns:sodipodi="http://sodipodi.sourceforge.net/DTD/sodipodi-0.dtd"
   xmlns:inkscape="http://www.inkscape.org/namespaces/inkscape"
   width="512mm"
   height="512mm"
   viewBox="0 0 512 512"
   version="1.1"
   id="svg4646"
   inkscape:version="0.92.3 (2405546, 2018-03-11)"
   sodipodi:docname="icon-twitter.svg">
  <defs
     id="defs4640">
    <clipPath
       id="clipPath4679"
       clipPathUnits="userSpaceOnUse">
      <path
         inkscape:connector-curvature="0"
         id="path4677"
         d="M 0,841.89 H 595.28 V 0 H 0 Z" />
    </clipPath>
  </defs>
  <sodipodi:namedview
     id="base"
     pagecolor="#ffffff"
     bordercolor="#666666"
     borderopacity="1.0"
     inkscape:pageopacity="0.0"
     inkscape:pageshadow="2"
     inkscape:zoom="0.175"
     inkscape:cx="143.59223"
     inkscape:cy="962.16201"
     inkscape:document-units="mm"
     inkscape:current-layer="layer1"
     showgrid="false"
     inkscape:snap-page="true"
     inkscape:snap-object-midpoints="true"
     inkscape:snap-center="true"
     inkscape:window-width="1920"
     inkscape:window-height="1015"
     inkscape:window-x="1600"
     inkscape:window-y="36"
     inkscape:window-maximized="1" />
  <metadata
     id="metadata4643">
    <rdf:RDF>
      <cc:Work
         rdf:about="">
        <dc:format>image/svg+xml</dc:format>
        <dc:type
           rdf:resource="http://purl.org/dc/dcmitype/StillImage" />
        <dc:title />
      </cc:Work>
    </rdf:RDF>
  </metadata>
  <g
     inkscape:label="Layer 1"
     inkscape:groupmode="layer"
     id="layer1"
     transform="translate(0,215)">
    <g
       transform="matrix(2.0275541,0,0,-2.0275541,-347.4812,894.48889)"
       inkscape:label="Twitter-logo"
       id="g4671"
       style="fill:#000000">
      <g
         id="g4673"
         style="fill:#000000">
        <g
           clip-path="url(#clipPath4679)"
           id="g4675"
           style="fill:#000000">
          <g
             transform="translate(250.7953,318.3316)"
             id="g4681"
             style="fill:#000000">
            <path
               inkscape:connector-curvature="0"
               id="path4683"
               style="fill:#000000;fill-opacity:1;fill-rule:nonzero;stroke:none"
               d="m 0,0 c 95.296,0 147.407,78.949 147.407,147.407 0,2.245 -0.045,4.478 -0.148,6.698 10.115,7.312 18.909,16.438 25.846,26.825 -9.283,-4.123 -19.273,-6.902 -29.752,-8.156 10.695,6.414 18.908,16.561 22.78,28.66 -10.011,-5.934 -21.096,-10.251 -32.896,-12.576 -9.453,10.07 -22.918,16.369 -37.817,16.369 -28.613,0 -51.817,-23.203 -51.817,-51.806 0,-4.065 0.455,-8.019 1.345,-11.812 -43.058,2.165 -81.24,22.782 -106.788,54.13 -4.455,-7.655 -7.017,-16.551 -7.017,-26.041 0,-17.975 9.147,-33.841 23.054,-43.124 -8.497,0.261 -16.481,2.597 -23.463,6.482 -0.012,-0.217 -0.012,-0.435 -0.012,-0.662 0,-25.093 17.86,-46.041 41.564,-50.792 -4.351,-1.183 -8.93,-1.822 -13.658,-1.822 -3.337,0 -6.582,0.331 -9.739,0.935 6.595,-20.584 25.72,-35.562 48.401,-35.985 -17.737,-13.895 -40.073,-22.176 -64.347,-22.176 -4.182,0 -8.303,0.239 -12.359,0.716 C -56.486,8.576 -29.263,0 0,0" />
          </g>
        </g>
      </g>
    </g>
  </g>
</svg>
